<svg xmlns="http://www.w3.org/2000/svg" width="146" height="37" viewBox="0 0 146 37" fill="none"><path d="M22.0315 1.96101C19.9718 3.9412 19.0225 7.54157 18.9297 9.23828L21.8724 10.988L24.1789 9.23828C23.9933 8.46946 23.7335 6.45464 24.1789 4.54584C24.6242 2.63705 26.6974 1.62964 27.6783 1.36453C27.9832 1.44406 28.585 1.44406 28.5532 0.807796C28.5214 0.171533 27.4795 0.0124584 26.9625 0.0124541C26.26 -0.0670789 23.7812 0.278816 22.0315 1.96101Z" fill="#485B30"></path><path d="M22.0315 1.95906C19.9718 3.93924 19.0225 7.53962 18.9297 9.23632L21.8724 10.9861C21.7001 8.96772 22.1031 4.89128 22.8666 3.45968C23.6301 2.02809 25.0935 0.755563 26.6046 0.556731L26.9625 0.0105009C26.26 -0.069032 23.7812 0.276863 22.0315 1.95906Z" fill="#5F755C"></path><path d="M31.9313 7.66212C28.8136 7.43943 26.0989 8.73581 25.1312 9.41184L25.7277 34.7828C27.0267 35.154 30.3247 35.7213 33.1242 35.0214C35.9238 34.3216 38.6385 31.416 39.646 30.0506C40.6269 28.7649 42.6762 25.2866 43.0261 21.6599C43.4635 17.1265 41.6741 14.5019 40.6799 12.8715C39.6857 11.2411 35.8284 7.94048 31.9313 7.66212Z" fill="url(#paint0_linear_10424_18104)"></path><path d="M11.1625 7.66212C14.2802 7.43943 16.9949 8.73581 17.9625 9.41184L17.3661 34.7828C16.067 35.154 12.7691 35.7213 9.9695 35.0214C7.16994 34.3216 4.45522 31.416 3.4478 30.0506C2.46689 28.7649 0.417583 25.2866 0.0676378 21.6599C-0.369793 17.1265 1.4197 14.5019 2.41386 12.8715C3.40802 11.2411 7.26537 7.94048 11.1625 7.66212Z" fill="url(#paint1_linear_10424_18104)"></path><path d="M10.3299 12.799C12.3085 10.377 16.267 9.59562 17.5514 9.71474C18.0142 17.8281 18.7472 34.0587 18.1415 34.452C17.5499 34.8361 16.4391 35.0347 15.2242 35.2332C10.892 33.0732 8.39984 27.687 7.9124 25.2518C7.42495 22.8166 6.56625 17.4059 10.3299 12.799Z" fill="url(#paint2_linear_10424_18104)"></path><path d="M32.8557 12.799C30.877 10.377 26.9185 9.59562 25.6342 9.71474C25.1713 17.8281 24.4384 34.0587 25.0441 34.452C25.6356 34.8361 26.7464 35.0347 27.9614 35.2332C32.2935 33.0732 34.7857 27.687 35.2732 25.2518C35.7606 22.8166 36.6193 17.4059 32.8557 12.799Z" fill="url(#paint3_linear_10424_18104)"></path><path d="M4.69615 11.7339C8.09492 8.19186 12.9676 8.3141 14.7571 9.26846C5.27959 10.5751 3.82129 16.5826 3.82129 20.7212C3.82129 27.5979 7.08214 31.5112 8.95117 33.4465C7.16167 32.7704 4.45757 29.947 3.38388 28.2768C2.31018 26.6066 1.11719 23.9394 1.11719 20.4428C1.11719 17.2163 2.2948 14.2365 4.69615 11.7339Z" fill="url(#paint4_linear_10424_18104)"></path><path d="M38.6124 11.7105C35.2137 8.16842 30.341 8.29066 28.5515 9.24502C38.029 10.5517 39.4873 16.5591 39.4873 20.6978C39.4873 27.5744 36.2265 31.4877 34.3574 33.423C36.1469 32.747 38.851 29.9236 39.9247 28.2534C40.9984 26.5832 42.1914 23.9159 42.1914 20.4194C42.1914 17.1928 41.0138 14.2131 38.6124 11.7105Z" fill="url(#paint5_linear_10424_18104)"></path><path d="M18.8101 9.2259C19.8918 9.03502 21.1961 9.91518 21.7131 10.3791C22.23 9.91518 23.5344 9.03502 24.616 9.2259C25.9681 9.4645 34.0804 11.5142 34.0804 21.3546C34.0804 29.1886 28.5794 33.8811 25.5307 35.2331C25.0667 35.538 23.6537 36.1478 21.7131 36.1478C19.7725 36.1478 18.3594 35.538 17.8955 35.2331C14.8467 33.8811 9.3457 29.1886 9.3457 21.3546C9.3457 11.5142 17.4581 9.4645 18.8101 9.2259Z" fill="url(#paint6_linear_10424_18104)"></path><path d="M9.18808 20.9136C9.79241 12.7932 15.4567 9.89761 18.2132 9.46484C15.3374 10.0419 10.0628 13.2024 9.58565 20.9136C9.10556 28.6732 15.0988 33.7524 17.8554 35.313C14.7145 33.8967 8.58375 29.0339 9.18808 20.9136Z" fill="url(#paint7_linear_10424_18104)"></path><path d="M34.3168 20.9926C33.7125 12.8722 28.0085 9.81754 25.2519 9.38477C28.1277 9.96179 33.4421 13.2814 33.9192 20.9926C34.3993 28.7522 28.2471 33.7519 25.4905 35.3125C28.6314 33.8962 34.9211 29.1129 34.3168 20.9926Z" fill="url(#paint8_linear_10424_18104)"></path><path d="M17.4579 10.3783C18.6031 9.86926 19.4992 10.4578 19.8041 10.8157C19.8041 10.8157 19.2871 10.8555 18.4123 11.2929C17.5374 11.7303 14.5549 14.7287 14.5549 21.4731C14.5549 28.2175 17.6567 33.4031 19.2076 35.1528C18.9557 35.0468 18.1657 34.6676 17.0204 33.9996C15.5888 33.1645 11.4531 28.7902 11.4531 21.4731C11.4531 14.1561 16.0263 11.0145 17.4579 10.3783Z" fill="url(#paint9_linear_10424_18104)"></path><path d="M26.046 10.3783C24.9008 9.86926 24.0047 10.4578 23.6998 10.8157C23.6998 10.8157 24.2168 10.8555 25.0917 11.2929C25.9665 11.7303 28.949 14.7287 28.949 21.4731C28.949 28.2175 25.8472 33.4031 24.2963 35.1528C24.5482 35.0468 25.3382 34.6676 26.4835 33.9996C27.9151 33.1645 32.0508 28.7902 32.0508 21.4731C32.0508 14.1561 27.4776 11.0145 26.046 10.3783Z" fill="url(#paint10_linear_10424_18104)"></path><path d="M143.312 24.5924C143.312 25.2286 143.514 25.5468 143.916 25.5468C144.319 25.5468 144.712 25.3877 145.094 25.0696L145.348 25.3877C144.563 26.2573 143.641 26.692 142.58 26.692C141.817 26.692 141.265 26.5012 140.926 26.1194C140.608 25.7164 140.449 25.0696 140.449 24.1788V19.3114C140.449 18.0813 140.056 17.4662 139.272 17.4662C138.508 17.4662 137.883 17.9858 137.395 19.0251C136.928 20.0643 136.695 21.4217 136.695 23.0972C136.695 23.7334 136.748 24.253 136.854 24.656C136.96 25.0378 137.13 25.4089 137.363 25.7695L137.617 26.0876L137.363 26.4057H132.75L132.559 25.8649L133.005 25.7695C133.344 25.6846 133.567 25.5574 133.673 25.3877C133.779 25.1968 133.832 24.8363 133.832 24.3061V18.1025C133.832 17.6995 133.694 17.498 133.418 17.498H132.4L132.305 17.1481C132.729 16.7875 133.259 16.4906 133.895 16.2573C134.532 16.024 135.168 15.9074 135.804 15.9074C136.08 15.9074 136.292 15.971 136.44 16.0983C136.61 16.2255 136.695 16.3952 136.695 16.6073V19.3432C136.992 18.3464 137.522 17.5192 138.286 16.8618C139.049 16.1831 139.855 15.8438 140.703 15.8438C141.615 15.8438 142.273 16.1407 142.676 16.7345C143.1 17.3284 143.312 18.2722 143.312 19.5659V24.5924Z" fill="#FEFEFE"></path><path d="M129.507 24.5935C129.507 25.2297 129.709 25.5479 130.112 25.5479C130.515 25.5479 130.907 25.3888 131.289 25.0707L131.543 25.3888C130.759 26.2584 129.836 26.6931 128.776 26.6931C128.012 26.6931 127.461 26.5023 127.121 26.1205C126.782 25.7175 126.612 25.0707 126.612 24.1799V17.8809C126.612 17.584 126.475 17.4355 126.199 17.4355H125.213L125.117 17.0856C125.541 16.725 126.072 16.4281 126.708 16.1948C127.344 15.9615 127.98 15.8448 128.617 15.8448C128.871 15.8448 129.083 15.9085 129.253 16.0357C129.423 16.163 129.507 16.3326 129.507 16.5447V24.5935ZM126.294 12.7908C126.294 12.409 126.506 11.9848 126.931 11.5182C127.355 11.0517 127.747 10.8184 128.108 10.8184C128.489 10.8184 128.892 11.0517 129.317 11.5182C129.762 11.9848 129.985 12.409 129.985 12.7908C129.985 13.1937 129.762 13.6285 129.317 14.0951C128.892 14.5405 128.489 14.7632 128.108 14.7632C127.747 14.7632 127.355 14.5405 126.931 14.0951C126.506 13.6285 126.294 13.1937 126.294 12.7908Z" fill="#FEFEFE"></path><path d="M125.187 25.4524C124.445 26.2796 123.522 26.6931 122.419 26.6931C121.74 26.6931 121.2 26.5447 120.797 26.2477C120.415 25.9508 120.118 25.4524 119.906 24.7525L118.92 21.953C118.792 21.5924 118.623 21.3167 118.411 21.1258C118.22 20.9349 117.955 20.7971 117.615 20.7123V23.0982C117.615 23.7557 117.658 24.2753 117.743 24.6571C117.849 25.0388 118.018 25.41 118.252 25.7706L118.506 26.0887L118.252 26.4068H113.639L113.448 25.866L113.893 25.7706C114.233 25.6857 114.455 25.5585 114.561 25.3888C114.667 25.1979 114.72 24.8374 114.72 24.3071V12.8226C114.72 12.5257 114.583 12.3772 114.307 12.3772H113.321L113.193 12.0591C113.596 11.6773 114.116 11.3804 114.752 11.1683C115.41 10.935 116.057 10.8184 116.693 10.8184C116.969 10.8184 117.191 10.882 117.361 11.0092C117.531 11.1153 117.615 11.2743 117.615 11.4864V20.1078L119.524 18.708C119.97 18.3899 120.277 18.1354 120.447 17.9445C120.616 17.7536 120.701 17.5521 120.701 17.3401C120.701 17.0431 120.574 16.7886 120.32 16.5765L120.065 16.3857L120.32 16.0675H124.169L124.36 16.6084C123.83 16.7356 123.236 17.0325 122.578 17.4991L118.824 20.2351C119.757 20.3411 120.479 20.5638 120.988 20.9031C121.497 21.2425 121.868 21.7303 122.101 22.3665L122.992 24.9116C123.14 25.3782 123.437 25.6115 123.883 25.6115C124.201 25.6115 124.551 25.4524 124.932 25.1343L125.187 25.4524Z" fill="#FEFEFE"></path><path d="M108.249 15.8438C109.33 15.8438 110.2 16.3209 110.857 17.2753C111.536 18.2085 111.875 19.4386 111.875 20.9657C111.875 22.0473 111.674 23.0229 111.271 23.8925C110.889 24.7408 110.338 25.4089 109.617 25.8967C108.917 26.3633 108.122 26.5966 107.231 26.5966C106.722 26.5966 106.234 26.5224 105.767 26.3739C105.322 26.2042 104.94 25.9709 104.622 25.674V29.3007C104.622 29.8097 104.686 30.1491 104.813 30.3187C104.961 30.5096 105.29 30.6581 105.799 30.7641L106.213 30.8596L106.022 31.4004H101.091L100.836 31.0823L101.091 30.7641C101.345 30.4248 101.515 30.0536 101.6 29.6507C101.706 29.2689 101.759 28.7493 101.759 28.0918V18.1025C101.759 17.7207 101.621 17.5298 101.345 17.5298H100.359L100.264 17.1799C100.667 16.8194 101.186 16.5224 101.823 16.2891C102.48 16.0558 103.116 15.9392 103.731 15.9392C104.007 15.9392 104.219 16.0028 104.368 16.1301C104.537 16.2573 104.622 16.427 104.622 16.6391V18.0389C105.152 17.2753 105.704 16.7239 106.276 16.3846C106.87 16.024 107.528 15.8438 108.249 15.8438ZM106.022 25.674C106.891 25.674 107.549 25.3029 107.994 24.5606C108.461 23.8183 108.694 22.726 108.694 21.2838C108.694 20.0325 108.524 19.0781 108.185 18.4206C107.846 17.7419 107.358 17.4026 106.722 17.4026C105.873 17.4026 105.174 17.9646 104.622 19.0887V25.2604C105.025 25.5362 105.492 25.674 106.022 25.674Z" fill="#FEFEFE"></path><path d="M90.7519 16.7027C91.1548 17.2541 91.3669 18.1343 91.3881 19.3432H91.4518C91.7487 18.3252 92.2365 17.4874 92.9152 16.83C93.5939 16.1725 94.315 15.8438 95.0785 15.8438C95.9905 15.8438 96.6479 16.1513 97.0509 16.7663C97.4751 17.3602 97.6872 18.2934 97.6872 19.5659V24.5924C97.6872 25.2286 97.8886 25.5468 98.2916 25.5468C98.6946 25.5468 99.0869 25.3877 99.4687 25.0696L99.7232 25.3877C98.9385 26.2573 98.0159 26.692 96.9554 26.692C96.1707 26.692 95.6193 26.4906 95.3012 26.0876C94.983 25.6634 94.824 24.9317 94.824 23.8925V19.3114C94.824 18.0813 94.421 17.4662 93.6151 17.4662C92.9364 17.4662 92.4062 18.0389 92.0244 19.1841C91.6426 20.3082 91.4518 21.6125 91.4518 23.0972C91.473 23.7546 91.526 24.2742 91.6108 24.656C91.7169 25.0378 91.8866 25.4089 92.1198 25.7695L92.3744 26.0876L92.1198 26.4057H88.5886V19.3114C88.5886 18.0813 88.1856 17.4662 87.3797 17.4662C86.701 17.4662 86.1708 18.0389 85.789 19.1841C85.4073 20.3082 85.2164 21.6125 85.2164 23.0972C85.2164 23.7546 85.2588 24.2742 85.3436 24.656C85.4497 25.0378 85.63 25.4089 85.8845 25.7695L86.139 26.0876L85.8845 26.4057H81.2716L81.0807 25.8649L81.5261 25.7695C81.8654 25.6846 82.0881 25.5574 82.1941 25.3877C82.3002 25.1968 82.3532 24.8363 82.3532 24.3061V18.1025C82.3532 17.7844 82.2153 17.6253 81.9396 17.6253H80.9216L80.8262 17.3072C81.2503 16.9466 81.7806 16.6497 82.4168 16.4164C83.0531 16.1831 83.6894 16.0664 84.3256 16.0664C84.6013 16.0664 84.8134 16.1301 84.9619 16.2573C85.1316 16.3634 85.2164 16.5224 85.2164 16.7345V19.3432C85.4921 18.3676 85.9587 17.5405 86.6162 16.8618C87.2736 16.1831 88.0159 15.8438 88.8431 15.8438C89.7127 15.8438 90.3489 16.1301 90.7519 16.7027Z" fill="#FEFEFE"></path><path d="M74.917 23.5107C74.6201 24.4439 74.1005 25.2074 73.3582 25.8013C72.6371 26.3951 71.863 26.692 71.0358 26.692C70.1027 26.692 69.4134 26.3951 68.968 25.8013C68.5226 25.2074 68.2999 24.2954 68.2999 23.0653V17.8798C68.2999 17.5829 68.162 17.4344 67.8863 17.4344H66.9001L66.8047 17.0845C67.2289 16.7239 67.7591 16.427 68.3953 16.1937C69.0316 15.9604 69.6573 15.8438 70.2723 15.8438C70.548 15.8438 70.7601 15.9074 70.9086 16.0346C71.0783 16.1619 71.1631 16.3316 71.1631 16.5436V22.9063C71.1631 23.6274 71.2691 24.1894 71.4812 24.5924C71.6933 24.9741 71.9902 25.165 72.372 25.165C73.1567 25.165 73.7824 24.6878 74.249 23.7334C74.7368 22.7578 74.9807 21.4959 74.9807 19.9476C74.9807 19.1205 74.917 18.4842 74.7898 18.0389C74.6838 17.5723 74.4823 17.1693 74.1853 16.83L73.899 16.48L74.1535 16.1937L77.812 15.9074V24.5924C77.812 25.2286 78.0029 25.5468 78.3847 25.5468C78.7876 25.5468 79.18 25.3877 79.5618 25.0696L79.8163 25.3877C79.074 26.2573 78.1514 26.692 77.0485 26.692C76.2426 26.692 75.6806 26.4587 75.3624 25.9922C75.0655 25.5256 74.917 24.6984 74.917 23.5107Z" fill="#FEFEFE"></path><path d="M62.0203 15.8438C63.1019 15.8438 63.9715 16.3209 64.6289 17.2753C65.3076 18.2085 65.647 19.4386 65.647 20.9657C65.647 22.0473 65.4455 23.0229 65.0425 23.8925C64.6608 24.7408 64.1093 25.4089 63.3882 25.8967C62.6883 26.3633 61.893 26.5966 61.0022 26.5966C60.4932 26.5966 60.0054 26.5224 59.5388 26.3739C59.0935 26.2042 58.7117 25.9709 58.3936 25.674V29.3007C58.3936 29.8097 58.4572 30.1491 58.5844 30.3187C58.7329 30.5096 59.0616 30.6581 59.5706 30.7641L59.9842 30.8596L59.7933 31.4004H54.8623L54.6078 31.0823L54.8623 30.7641C55.1168 30.4248 55.2865 30.0536 55.3713 29.6507C55.4774 29.2689 55.5304 28.7493 55.5304 28.0918V18.1025C55.5304 17.7207 55.3925 17.5298 55.1168 17.5298H54.1306L54.0352 17.1799C54.4381 16.8194 54.9577 16.5224 55.594 16.2891C56.2515 16.0558 56.8877 15.9392 57.5028 15.9392C57.7785 15.9392 57.9906 16.0028 58.1391 16.1301C58.3087 16.2573 58.3936 16.427 58.3936 16.6391V18.0389C58.9238 17.2753 59.4752 16.7239 60.0478 16.3846C60.6417 16.024 61.2992 15.8438 62.0203 15.8438ZM59.7933 25.674C60.6629 25.674 61.3204 25.3029 61.7658 24.5606C62.2324 23.8183 62.4656 22.726 62.4656 21.2838C62.4656 20.0325 62.296 19.0781 61.9566 18.4206C61.6173 17.7419 61.1295 17.4026 60.4932 17.4026C59.6449 17.4026 58.945 17.9646 58.3936 19.0887V25.2604C58.7965 25.5362 59.2631 25.674 59.7933 25.674Z" fill="#FEFEFE"></path><defs><linearGradient id="paint0_linear_10424_18104" x1="34.1125" y1="7.63672" x2="34.1125" y2="35.3534" gradientUnits="userSpaceOnUse"><stop stop-color="#FFC506"></stop><stop offset="1" stop-color="#FF6010"></stop></linearGradient><linearGradient id="paint1_linear_10424_18104" x1="8.98127" y1="7.63672" x2="8.98127" y2="35.3534" gradientUnits="userSpaceOnUse"><stop stop-color="#FFC708"></stop><stop offset="1" stop-color="#FF5E10"></stop></linearGradient><linearGradient id="paint2_linear_10424_18104" x1="13.6635" y1="9.70196" x2="13.6635" y2="35.3257" gradientUnits="userSpaceOnUse"><stop stop-color="#FDB806"></stop><stop offset="1" stop-color="#E0430C"></stop></linearGradient><linearGradient id="paint3_linear_10424_18104" x1="29.5221" y1="9.70196" x2="29.5221" y2="35.3257" gradientUnits="userSpaceOnUse"><stop stop-color="#FDB806"></stop><stop offset="1" stop-color="#E0430C"></stop></linearGradient><linearGradient id="paint4_linear_10424_18104" x1="7.93538" y1="8.58952" x2="7.93538" y2="33.4463" gradientUnits="userSpaceOnUse"><stop stop-color="#FFDE64"></stop><stop offset="1" stop-color="#FE731A"></stop></linearGradient><linearGradient id="paint5_linear_10424_18104" x1="35.3732" y1="8.56608" x2="35.3732" y2="33.4229" gradientUnits="userSpaceOnUse"><stop stop-color="#FFDE64"></stop><stop offset="1" stop-color="#FE731A"></stop></linearGradient><linearGradient id="paint6_linear_10424_18104" x1="21.7131" y1="9.19922" x2="21.7131" y2="36.1478" gradientUnits="userSpaceOnUse"><stop stop-color="#FDD710"></stop><stop offset="1" stop-color="#FB630F"></stop></linearGradient><linearGradient id="paint7_linear_10424_18104" x1="13.6799" y1="9.46484" x2="13.6799" y2="35.313" gradientUnits="userSpaceOnUse"><stop stop-color="#FFEB6D"></stop><stop offset="1" stop-color="#FC941E"></stop></linearGradient><linearGradient id="paint8_linear_10424_18104" x1="29.825" y1="9.54383" x2="29.825" y2="35.392" gradientUnits="userSpaceOnUse"><stop stop-color="#FFEB6D"></stop><stop offset="1" stop-color="#FC941E"></stop></linearGradient><linearGradient id="paint9_linear_10424_18104" x1="15.6286" y1="10.1797" x2="15.6286" y2="35.1528" gradientUnits="userSpaceOnUse"><stop stop-color="#FFE95E"></stop><stop offset="1" stop-color="#FC851C"></stop></linearGradient><linearGradient id="paint10_linear_10424_18104" x1="27.8753" y1="10.1797" x2="27.8753" y2="35.1528" gradientUnits="userSpaceOnUse"><stop stop-color="#FFE95E"></stop><stop offset="1" stop-color="#FC851C"></stop></linearGradient></defs></svg>